Coordinates
version=1
nRows=24
nColumns=24
inDegrees=yes

Units are S.I. units (second, meters, Newtons, ...)
Angles are in degrees.

endheader
time	pelvis_tilt	pelvis_list	pelvis_rotation	pelvis_tx	pelvis_ty	pelvis_tz	hip_flexion_r	hip_adduction_r	hip_rotation_r	knee_angle_r	ankle_angle_r	subtalar_angle_r	mtp_angle_r	hip_flexion_l	hip_adduction_l	hip_rotation_l	knee_angle_l	ankle_angle_l	subtalar_angle_l	mtp_angle_l	lumbar_extension	lumbar_bending	lumbar_rotation
      0.46200000	      0.39325445	      0.70702736	      0.89860584	     -0.78263116	      0.99390898	      0.29244290	     23.10207152	      1.88944462	     -2.47297759	     -9.06730966	      2.35496055	    -13.63099213	     -0.29078844	    -15.72286028	      3.99077758	      0.07944038	     -7.47508676	      8.19023246	     -2.87213277	      0.56685059	     -3.07893991	      2.26223244	     -0.10795846
      0.46616667	      0.32437550	      0.69857775	      0.95979843	     -0.77655676	      0.99311586	      0.29272358	     23.07488017	      1.94873967	     -2.58206190	     -9.00344248	      2.20365300	    -13.56196413	     -0.37572175	    -15.65626146	      3.92244648	     -0.00350888	     -8.17454743	      8.27963163	     -2.56568553	      0.76666875	     -2.93508179	      2.27265102	     -0.20096242
      0.47033333	      0.29571068	      0.65672657	      1.01249374	     -0.77042615	      0.99240654	      0.29301998	     22.99792380	      2.04739019	     -2.67385648	     -9.00906257	      2.04315583	    -13.58731886	     -0.44818168	    -15.60850168	      3.81872789	     -0.12230713	     -8.92310327	      8.35038946	     -2.32190685	      1.02803933	     -2.82971552	      2.31856104	     -0.29031523
      0.47450000	      0.28679239	      0.59125686	      1.06275454	     -0.76428414	      0.99174809	      0.29331459	     22.90486764	      2.17517027	     -2.71709898	     -9.10194628	      1.91625047	    -13.75284094	     -0.56821854	    -15.54534844	      3.68712984	     -0.26306798	     -9.73893509	      8.40772586	     -2.02591367	      1.79007504	     -2.75189816	      2.42495436	     -0.36682140
      0.47866667	      0.24471411	      0.58540901	      1.11327822	     -0.75815680	      0.99108871	      0.29357669	     22.86024021	      2.23089602	     -2.76081330	     -9.26141471	      1.57276676	    -13.76095552	     -0.58452260	    -15.43949689	      3.63643822	     -0.24276795	    -10.55413342	      8.32586211	     -2.00216547	      2.00423267	     -2.63163590	      2.43163463	     -0.40949083
      0.48283333	      0.18808262	      0.53941966	      1.13431491	     -0.75201307	      0.99038970	      0.29390670	     22.85942288	      2.34352167	     -2.75537662	     -9.54642591	      1.31657699	    -13.94548920	     -0.57673719	    -15.24381586	      3.53169806	     -0.41437624	    -11.52117459	      8.32022524	     -1.74298156	      2.45285902	     -2.50350980	      2.50206575	     -0.51470311
      0.48700000	      0.16026126	      0.45810075	      1.20679363	     -0.74581849	      0.98981699	      0.29418152	     22.78494737	      2.47923387	     -2.75051763	     -9.80508175	      1.01054716	    -14.28893846	     -0.50709460	    -15.04733696	      3.37378832	     -0.50757046	    -12.53613320	      8.23588318	     -1.50034736	      3.46793652	     -2.39131361	      2.61766442	     -0.56235514
      0.49116667	      0.19232503	      0.39210230	      1.20590133	     -0.73960666	      0.98934420	      0.29453368	     22.64761567	      2.62460449	     -2.63720355	    -10.08949327	      0.52427857	    -14.52122822	     -0.08784614	    -14.92084411	      3.25585751	     -0.62991508	    -13.52153233	      7.95598071	     -1.49607166	      7.12174624	     -2.36416126	      2.70841462	     -0.55682077
      0.49533333	      0.12611598	      0.36321069	      1.27046507	     -0.73345901	      0.98875275	      0.29476204	     22.68065611	      2.68526345	     -2.68901152	    -10.55253020	      0.19020593	    -14.58654492	     -0.07505686	    -14.61166934	      3.17359417	     -0.60098337	    -14.66024188	      7.80427473	     -1.48165783	      7.19908642	     -2.21213541	      2.75915241	     -0.57754013
      0.49950000	      0.10509947	      0.28980182	      1.31011278	     -0.72727162	      0.98825888	      0.29505367	     22.64109263	      2.81087050	     -2.65000507	    -10.99866132	     -0.19618143	    -14.78775908	     -0.05378717	    -14.30875998	      3.03379846	     -0.68344109	    -15.87172541	      7.57706534	     -1.35672347	      7.33729455	     -2.11153687	      2.86568991	     -0.60074435
      0.50366667	      0.05231573	      0.20934666	      1.33860982	     -0.72109526	      0.98774963	      0.29537653	     22.64045126	      2.95112239	     -2.55573187	    -11.48051038	     -0.57937591	    -15.08782371	     -0.02759144	    -13.91972772	      2.88365812	     -0.78859788	    -17.16760766	      7.29189642	     -1.22685387	      7.54093233	     -1.97640237	      2.98188776	     -0.60543567
      0.50783333	      0.03920288	      0.11135116	      1.36015007	     -0.71492992	      0.98732978	      0.29572877	     22.59862107	      3.11529305	     -2.43598888	    -11.98671914	     -0.95691616	    -15.44525472	      0.00454016	    -13.53093855	      2.70659026	     -0.92410087	    -18.52937643	      6.95771174	     -1.07851137	      7.84921698	     -1.89077116	      3.11454537	     -0.59501567
      0.51200000	      0.01364215	      0.00923928	      1.37916860	     -0.70877323	      0.98691181	      0.29607630	     22.58255347	      3.27922804	     -2.32002339	    -12.53532992	     -1.30178643	    -15.75549778	      0.03057866	    -13.09209856	      2.52770922	     -1.02783034	    -19.94653633	      6.52470512	     -0.99328429	      8.17269680	     -1.78971283	      3.25626945	     -0.55780190
      0.51616667	      0.04148215	     -0.11853012	      1.37273940	     -0.70262892	      0.98659535	      0.29649197	     22.50664924	      3.49124996	     -2.12728132	    -13.09713739	     -1.60792703	    -16.28677070	      0.37190787	    -12.67024116	      2.31246707	     -1.19525315	    -21.40339882	      5.92750916	     -1.02589363	     13.72962758	     -1.76487815	      3.42721433	     -0.47831280
      0.52033333	      0.00880624	     -0.23497425	      1.38711175	     -0.69650053	      0.98621478	      0.29686034	     22.52277759	      3.66212141	     -2.04403575	    -13.72050241	     -1.87360846	    -16.41559106	      0.37004167	    -12.12359504	      2.10203669	     -1.32886183	    -22.96966447	      5.36398536	     -0.88949803	     13.79392933	     -1.65933912	      3.57794846	     -0.45015793
      0.52450000	      0.01740030	     -0.38441830	      1.39244255	     -0.69041279	      0.98590761	      0.29725805	     22.49107295	      3.87838977	     -1.91838158	    -14.34562112	     -2.07001768	    -16.69230283	      0.36025762	    -11.57223339	      1.84830887	     -1.48615183	    -24.60919358	      4.73611639	     -0.78644170	     13.92964089	     -1.60406341	      3.77666499	     -0.38453643
      0.52866667	      0.01481123	     -0.53862173	      1.37720409	     -0.68437204	      0.98558865	      0.29770226	     22.49202298	      4.10942775	     -1.76729647	    -15.01870357	     -2.23416652	    -17.04753844	      0.33523412	    -10.96547531	      1.58542688	     -1.66070544	    -26.30820338	      4.06644856	     -0.68762872	     14.18133454	     -1.55277458	      3.97364896	     -0.29598917
      0.53283333	      0.08087396	     -0.76845402	      1.35841837	     -0.67830195	      0.98543535	      0.29822425	     22.34759569	      4.45102057	     -1.48133563	    -15.55552449	     -2.39872899	    -17.70698607	      0.15284907	    -10.40067920	      1.21792336	     -1.88238488	    -28.03645932	      3.24578999	     -0.61407880	     15.64933949	     -1.57425470	      4.26197495	     -0.19604607
      0.53700000	      0.07315514	     -0.92439774	      1.36222732	     -0.67231483	      0.98513880	      0.29860679	     22.39028706	      4.65014027	     -1.48091815	    -16.31566237	     -2.35658531	    -17.64553240	      0.11837011	     -9.70800073	      0.94449817	     -1.99807524	    -29.83079855	      2.38060862	     -0.58293043	     15.89374180	     -1.51120668	      4.45846862	     -0.08427623
      0.54116667	      0.09777951	     -1.12201559	      1.34759516	     -0.66635318	      0.98491066	      0.29906274	     22.36374045	      4.91974329	     -1.37604425	    -17.00951767	     -2.28325741	    -17.80559038	      0.06449284	     -9.01277965	      0.61078111	     -2.16120001	    -31.66425553	      1.46507135	     -0.54683455	     16.21292839	     -1.49210634	      4.70600089	      0.04141225
      0.54533333	      0.11875662	     -1.34289443	      1.33340744	     -0.66041839	      0.98470961	      0.29952807	     22.32864351	      5.21640695	     -1.26425560	    -17.68050942	     -2.16596208	    -18.00476379	     -0.01055467	     -8.27865356	      0.24422072	     -2.31722847	    -33.53330914	      0.45359956	     -0.54108430	     16.59676693	     -1.46971589	      4.98064121	      0.17573130
      0.54950000	      0.17804980	     -1.58835061	      1.31419589	     -0.65451688	      0.98456738	      0.30000765	     22.24342676	      5.54287375	     -1.15634170	    -18.33681996	     -1.98583686	    -18.20985903	     -0.12911908	     -7.55959941	     -0.15784019	     -2.47506564	    -35.42251453	     -0.58745739	     -0.53609963	     17.11910684	     -1.49870027	      5.27763460	      0.33141991
      0.55366667	      0.33314616	     -1.87265720	      1.29392581	     -0.64860370	      0.98462878	      0.30053786	     21.99417129	      5.93140528	     -0.98116128	    -18.87868237	     -1.74412121	    -18.53240109	     -1.28687340	     -6.93597200	     -0.62488020	     -2.66165129	    -37.27538170	     -1.84421811	     -0.60024692	     21.32126375	     -1.64126009	      5.61408597	      0.46136753
      0.55783333	      0.40733820	     -2.14481492	      1.30228307	     -0.64275744	      0.98456051	      0.30094516	     21.86629145	      6.25891221	     -0.98945175	    -19.47739047	     -1.46736523	    -18.43146333	     -1.30542283	     -6.17523690	     -1.06497932	     -2.76448556	    -39.19794647	     -2.99051353	     -0.71880350	     21.33474535	     -1.67863969	      5.94688075	      0.58821016
